<?xml version="1.0" encoding="UTF-8"?><svg id="a" xmlns="http://www.w3.org/2000/svg" viewBox="0 0 100 100"><defs><style>.b{fill:#212121;}</style></defs><path class="b" d="M94.63,27.05c-.65-.92-1.92-1.14-2.84-.5l-9.05,6.37c-4.01-2.46-8.91-4.45-14.44-5.83l5.23-3.58c.91-.62,1.14-1.86,.52-2.77-.62-.91-1.86-1.14-2.77-.52l-8.39,5.74c-1.03-.17-2.08-.32-3.13-.45-2.46-1.87-5.48-2.79-8.6-2.56-2.21,.16-4.28,.88-6.08,2.07-22.79,1.25-40.03,11.69-40.03,24.81,0,.09,.01,.18,.01,.28-.08,2.59-.07,3.04-.03,4.74v.62c.34,14.07,19.39,24.68,44.33,24.68s44.33-10.32,44.94-24.55c.1-2.42,.1-2.89,0-6.4,0-.11-.02-.21-.04-.31-.32-5.04-3.21-9.66-7.96-13.47l7.84-5.51c.92-.65,1.14-1.92,.5-2.84Zm-20.93,21.32c-.29-3.46-1.92-6.6-4.58-8.84-1.19-1-2.52-1.75-3.94-2.27,1.47-1.99,3.76-3.37,6.42-3.59,.2-.02,.4-.03,.6-.03,4.66-.08,8.66,3.47,9.05,8.18,.4,4.75-3.01,8.95-7.67,9.59,.15-.99,.19-2.01,.11-3.03Zm-25.75,18.79c-4.9,.41-9.24-3.24-9.66-8.15-.42-4.91,3.24-9.24,8.15-9.66,.2-.02,.4-.03,.6-.03,4.66-.08,8.66,3.47,9.05,8.18,.42,4.91-3.24,9.24-8.15,9.66Zm-13.5-11.52c-1.46,2.1-3.81,3.56-6.56,3.76-4.8,.34-9-3.28-9.35-8.09-.35-4.81,3.28-9,8.09-9.35,.2-.01,.39-.02,.59-.02,4.56-.02,8.42,3.5,8.76,8.11,.04,.58,.02,1.15-.05,1.7-.7,1.21-1.21,2.52-1.49,3.89Zm18.49-16.58c-.64-2.49-2.01-4.73-3.99-6.44-1.15-.99-2.44-1.75-3.82-2.27,1.47-1.93,3.72-3.25,6.32-3.44,.2-.01,.39-.02,.59-.02,4.56-.02,8.42,3.5,8.76,8.11,.04,.5,.02,.98-.03,1.46-.37,0-.75,0-1.13,.04-2.47,.21-4.77,1.11-6.7,2.56Zm-12.36-5.56c4.55-.02,8.42,3.5,8.76,8.11,.04,.58,.02,1.15-.05,1.71-.34,.64-.63,1.3-.86,1.98-.77-.07-1.54-.08-2.32-.02-2.37,.2-4.59,1.04-6.47,2.4-.62-2.57-2-4.87-4.03-6.63-.95-.82-2-1.49-3.11-1.99,.36-.91,.87-1.77,1.53-2.54,1.53-1.77,3.65-2.83,5.98-3,.2-.01,.39-.02,.59-.02Zm15.01,14.8c-.98-.83-2.06-1.49-3.21-1.99,.35-.94,.86-1.82,1.53-2.61,1.54-1.82,3.7-2.94,6.07-3.14,.2-.02,.4-.03,.6-.03,4.65-.08,8.65,3.47,9.05,8.18,.42,4.91-3.24,9.24-8.15,9.66-.43,.04-.86,.03-1.29,0,0-.4,0-.81-.04-1.22-.29-3.46-1.92-6.6-4.58-8.84Zm8.77-16.01c-.19-.69-.43-1.37-.73-2.02,.99,.19,1.96,.41,2.92,.64-.77,.39-1.5,.85-2.18,1.38ZM9.14,50.1s0-.09,0-.14c0-.07,0-.14-.01-.21,.06-9.01,11.92-16.89,27.88-19.69-2.32,.68-4.4,2-6.02,3.87-1.06,1.23-1.85,2.62-2.37,4.11-.75-.08-1.51-.1-2.27-.04-3.39,.24-6.48,1.8-8.71,4.37s-3.32,5.86-3.07,9.25c.48,6.71,6.12,11.85,12.75,11.81,.29,0,.57-.01,.86-.03,2.36-.17,4.52-.99,6.33-2.26,.95,4.22,3.92,7.61,7.78,9.19-18.43-1.83-32.89-10.31-33.16-20.21Zm40.22,25.96c-16.17,0-29.91-4.79-36.34-11.84,8,6.42,21.3,10.54,36.65,10.54s28.52-4.08,36.53-10.44c-6.51,7.06-20.3,11.74-36.84,11.74Zm40.87-26.24c0,11.05-17.73,20.41-39.05,20.84,3.95-1.27,7.03-4.37,8.34-8.23,.47,.04,.95,.07,1.43,.06,.3,0,.59-.02,.89-.05,3.46-.29,6.6-1.92,8.84-4.58,.61-.72,1.12-1.49,1.55-2.3,.12,0,.23,.01,.34,.01,.3,0,.59-.02,.89-.05,3.46-.29,6.6-1.92,8.84-4.58,2.24-2.66,3.31-6.03,3.02-9.49-.05-.56-.14-1.11-.26-1.65,3.27,2.99,5.16,6.41,5.16,10Z"/></svg>